<?xml version="1.0" encoding="utf-8"?><!-- Uploaded to: SVG Repo, www.svgrepo.com, Generator: SVG Repo Mixer Tools -->
<svg fill="#000000" width="800px" height="800px" viewBox="0 -7 46 46" xmlns="http://www.w3.org/2000/svg">
  <path id="_08.Credit-Card" data-name="08.Credit-Card" d="M43,40H5a4,4,0,0,1-4-4V12A4,4,0,0,1,5,8H43a4,4,0,0,1,4,4V36A4,4,0,0,1,43,40ZM3,21H45V17H3Zm42-9a2,2,0,0,0-2-2H5a2,2,0,0,0-2,2v3H45Zm0,11H3V36a2,2,0,0,0,2,2H43a2,2,0,0,0,2-2ZM26,29H22a1,1,0,0,1,0-2h4a1,1,0,0,1,0,2Zm-9,0H8a1,1,0,0,1,0-2h9a1,1,0,0,1,0,2ZM8,32h6a1,1,0,0,1,0,2H8a1,1,0,0,1,0-2Z" transform="translate(-1 -8)" fill-rule="evenodd"/>
</svg>