<?xml version="1.0" encoding="iso-8859-1"?>
<!-- Generator: Adobe Illustrator 19.0.0, SVG Export Plug-In . SVG Version: 6.00 Build 0)  -->
<svg version="1.1" id="Layer_1" xmlns="http://www.w3.org/2000/svg" xmlns:xlink="http://www.w3.org/1999/xlink" x="0px" y="0px"
	 viewBox="0 0 512 512" style="enable-background:new 0 0 512 512;" xml:space="preserve">
<path style="fill:#AB5034;" d="M256,8.084C119.079,8.084,8.084,119.08,8.084,256S119.079,503.916,256,503.916
	S503.916,392.92,503.916,256S392.921,8.084,256,8.084z M40.421,256.002C40.42,137.164,137.163,40.42,256.001,40.421
	c46.938,0,90.369,15.005,125.766,40.476c8.073,5.81,8.973,17.499,1.94,24.532L105.428,383.707
	c-7.033,7.033-18.722,6.133-24.532-1.94C55.426,346.37,40.421,302.94,40.421,256.002z M255.999,471.579
	c-46.938,0-90.369-15.005-125.766-40.476c-8.073-5.809-8.973-17.499-1.94-24.532l278.279-278.279
	c7.033-7.033,18.722-6.133,24.532,1.94c25.47,35.397,40.475,78.826,40.476,125.764C471.58,374.836,374.837,471.58,255.999,471.579z"
	/>
<path style="fill:#D5A150;" d="M405.081,242.701c-9.768-65.33-57.786-128.612-119.312-144.541L132.238,382.824
	c1.006,0.652,2.017,1.3,3.059,1.918l0,0c74.097,43.924,167.305,43.924,241.402,0l0,0c35.866-21.26,50.318-63.054,38.107-100.481
	C410.385,270.707,407.189,256.801,405.081,242.701z"/>
<g>
	<path style="fill:#ECCE93;" d="M331.428,363.183L331.428,363.183c37.65-22.319,51.703-67.264,36.086-106.033
		c-3.52-8.737-5.726-17.952-6.634-27.329c-4.951-51.117-33.922-102.207-75.11-131.663c-7.415-1.92-15.024-3.16-22.789-3.625
		c-2.315-0.139-4.641-0.219-6.983-0.219c-72.925,0-133.768,68.233-147.84,141.124c-3.417,17.702-7.34,35.3-12.13,52.681
		c-9.729,35.308,3.784,73.69,36.209,94.703C197.483,405.64,270.843,399.098,331.428,363.183z"/>
	<path style="fill:#ECCE93;" d="M218.661,148.211l-22.073-38.232c-9.307-16.12-30.915-20.143-45.253-8.273
		c-9.545,7.902-18.521,16.871-26.862,26.859c-12.966,15.525-23.298,32.977-32.049,50.927c-2.97,6.091-5.245,10.113-9.742,25.295
		c-4.916,16.601,7.076,33.555,24.383,34.044h10.117h38.212c40.301,0,69.136-33.099,69.108-69.163
		C224.495,162.502,222.665,155.147,218.661,148.211z"/>
</g>
<path style="fill:#D5A150;" d="M196.588,109.979l22.073,38.232c16.595,28.744-4.149,64.674-37.339,64.674h-25.869
	c-12.817,0-28.56,0-47.846,0h-0.28c-16.841,0-17.518,25.186-0.694,25.933c0.144,0.006,0.289,0.012,0.433,0.016h10.117h38.212
	c0.924,0,1.831-0.044,2.742-0.079h22.25c24.805,0,48.083-12.842,60.557-34.282c12.592-21.641,12.632-47.527,0.122-69.195
	l-20.504-35.513c-8.289,2.571-16.313,5.994-24.006,10.165C196.566,109.945,196.578,109.961,196.588,109.979z"/>
<path style="fill:#E1B872;" d="M293.339,148.211l22.073-38.232c9.307-16.12,30.915-20.143,45.253-8.273
	c9.545,7.902,18.521,16.871,26.862,26.859c12.966,15.525,23.298,32.977,32.049,50.927c2.97,6.091,5.245,10.113,9.742,25.295
	c4.916,16.601-7.076,33.555-24.383,34.044h-10.117h-38.212c-40.301,0-69.136-33.099-69.108-69.163
	C287.505,162.502,289.335,155.147,293.339,148.211z"/>
<g>
	<path style="fill:#D5A150;" d="M404.936,238.832h-10.117h-38.212c-22.616,0-41.62-10.426-53.939-25.948h102.008
		c16.841,0,17.518,25.186,0.694,25.933C405.225,238.824,405.08,238.828,404.936,238.832z"/>
	<path style="fill:#D5A150;" d="M295.013,295.751l-9.208-15.361c-13.464-22.459-46.146-22.459-59.609,0l-9.208,15.361
		c-11.427,19.06,2.371,43.247,24.672,43.247h28.683C292.642,338.998,306.44,314.811,295.013,295.751z"/>
</g>
<g>
	<path style="fill:#CE9276;" d="M167.613,296.421h-10.779c-4.466,0-8.084-3.62-8.084-8.084s3.618-8.084,8.084-8.084h10.779
		c4.466,0,8.084,3.62,8.084,8.084S172.078,296.421,167.613,296.421z"/>
	<path style="fill:#CE9276;" d="M355.166,296.421h-10.779c-4.466,0-8.084-3.62-8.084-8.084s3.618-8.084,8.084-8.084h10.779
		c4.466,0,8.084,3.62,8.084,8.084S359.632,296.421,355.166,296.421z"/>
</g>
<path d="M512,256c0-21.211-3.645-46.168-8.623-66.239c-11.444-43.02-34.04-82.462-66.358-114.781C388.667,26.628,324.379,0,256,0
	S123.333,26.628,74.981,74.982C26.628,123.333,0,187.62,0,256s26.628,132.667,74.981,181.019C123.333,485.372,187.62,512,256,512
	c62.176,0,122.133-22.577,168.823-63.571c3.354-2.945,3.687-8.054,0.742-11.408c-0.03-0.033-0.063-0.063-0.093-0.096
	c-2.958-3.26-7.994-3.56-11.316-0.646c-43.741,38.403-99.908,59.553-158.156,59.553C123.756,495.832,16.168,388.244,16.168,256
	S123.756,16.168,256,16.168S495.832,123.756,495.832,256c0,58.248-21.149,114.415-59.551,158.156
	c-2.917,3.321-2.615,8.357,0.646,11.316c0.033,0.03,0.061,0.064,0.096,0.093c3.353,2.947,8.463,2.614,11.408-0.742
	c26.215-29.858,44.884-65.146,54.948-102.966v0.568C508.347,302.396,512,276.955,512,256z"/>
<path d="M109.71,425.155c3.157,3.156,8.276,3.156,11.432,0l2.965-2.965l22.229-22.229c33.847,16.924,71.416,25.808,109.661,25.808
	h0.004c44.057,0,87.22-11.782,124.825-34.073c1.101-0.652,2.129-1.306,3.333-2.088c20.658-13.387,35.064-33.8,40.567-57.479
	c5.482-23.6,1.629-48.265-10.852-69.453c-1.309-2.223-3.516-3.581-5.887-3.902c-1.734-0.235-3.556,0.083-5.181,1.039
	c-3.847,2.267-5.129,7.221-2.862,11.069c21.332,36.213,10.535,82.402-24.579,105.158c-1.042,0.677-1.914,1.233-2.782,1.747
	c-35.11,20.812-75.421,31.813-116.58,31.813h-0.004c-30.123,0-59.791-5.9-87.3-17.219c-10.076-4.147-19.866-9.013-29.279-14.593
	c-0.872-0.516-1.743-1.071-2.785-1.748c-29.141-18.885-42.184-53.853-32.459-87.014c5.036-17.168,8.672-32.719,11.114-47.545
	l0.167-0.993c0.107-0.514,0.164-1.047,0.167-1.591c0-0.022-0.003-0.043-0.003-0.065c-0.005-4.415-3.553-8.014-7.974-8.072
	l-0.355-0.009c-4.987-0.141-9.582-2.308-12.883-5.998c-0.421-0.471-0.828-0.959-1.204-1.479c-3.414-4.709-4.425-10.611-2.772-16.191
	c3.894-13.151,5.906-17.237,8.452-22.409l0.804-1.639c9.606-19.701,19.742-35.823,30.988-49.289
	c7.983-9.559,16.667-18.243,25.813-25.813c4.953-4.1,11.444-5.798,17.807-4.651c6.445,1.158,12.017,5.073,15.29,10.739
	c2.232,3.867,7.178,5.189,11.043,2.959l0,0c3.75-2.165,5.098-6.878,3.141-10.687c-0.002-0.003-0.003-0.008-0.005-0.011
	c-0.059-0.115-0.111-0.232-0.177-0.346c-5.658-9.798-15.291-16.566-26.431-18.569c-11.06-1.989-22.349,0.968-30.977,8.11
	c-9.906,8.2-19.298,17.588-27.913,27.905c-12.095,14.482-22.926,31.676-33.112,52.568l-0.777,1.583
	c-2.656,5.395-5.165,10.49-9.45,24.959c-3.089,10.432-1.2,21.466,5.186,30.273c4.538,6.26,10.862,10.686,18.042,12.785
	c-2.279,12.173-5.405,24.976-9.496,38.923c-9.045,30.84-1.794,62.952,18.053,86.513l-13.579,13.579
	C64.295,348.056,48.505,302.74,48.505,256c0-114.413,93.082-207.495,207.495-207.495c39.022,0,77.045,10.893,109.956,31.503
	c3.737,2.342,8.647,1.246,11.05-2.428c0.029-0.045,0.064-0.086,0.093-0.133c2.369-3.784,1.223-8.773-2.561-11.142
	C339.051,44.082,298.061,32.337,256,32.337C132.672,32.337,32.337,132.672,32.337,256c0,53.528,19.212,105.325,54.097,145.848
	c0.064,0.074,0.136,0.14,0.203,0.212c0.07,0.077,0.135,0.156,0.208,0.231c0.028,0.028,0.059,0.052,0.087,0.079
	c0.097,0.095,0.198,0.182,0.3,0.271c0.11,0.096,0.219,0.193,0.332,0.281c0.094,0.074,0.191,0.141,0.287,0.21
	c0.13,0.094,0.26,0.185,0.393,0.271c0.088,0.056,0.18,0.107,0.269,0.16c0.147,0.085,0.295,0.168,0.446,0.244
	c0.089,0.044,0.18,0.084,0.269,0.125c0.156,0.07,0.313,0.138,0.472,0.198c0.096,0.037,0.193,0.069,0.291,0.101
	c0.155,0.052,0.312,0.101,0.47,0.143c0.108,0.029,0.216,0.055,0.323,0.079c0.152,0.034,0.304,0.064,0.457,0.089
	c0.116,0.019,0.233,0.037,0.349,0.051c0.15,0.018,0.3,0.03,0.449,0.04c0.073,0.004,0.144,0.017,0.218,0.019
	c0.101,0.003,0.202,0.005,0.302,0.005l0,0l0,0l0,0c0.004,0,0.01-0.001,0.014-0.001c0.259,0,0.516-0.013,0.774-0.038
	c0.064-0.007,0.126-0.019,0.19-0.027c0.198-0.024,0.397-0.05,0.594-0.088c0.052-0.011,0.102-0.027,0.154-0.038
	c0.207-0.045,0.413-0.093,0.615-0.154c0.03-0.009,0.058-0.022,0.088-0.031c0.222-0.07,0.442-0.147,0.659-0.236
	c0.011-0.004,0.022-0.011,0.033-0.015c0.231-0.096,0.458-0.203,0.681-0.321c0.01-0.005,0.018-0.012,0.028-0.017
	c0.221-0.119,0.438-0.247,0.649-0.388c0.033-0.023,0.066-0.05,0.099-0.072c0.183-0.126,0.364-0.255,0.538-0.398
	c0.206-0.169,0.406-0.349,0.599-0.541l19.867-19.867c3.044,2.563,6.274,4.967,9.694,7.183c1.041,0.675,2.165,1.396,3.336,2.089
	c0.117,0.07,0.237,0.137,0.356,0.207l-21.82,21.82C106.553,416.879,106.553,421.997,109.71,425.155z"/>
<path d="M137.463,445.695c35.486,22.223,76.477,33.968,118.537,33.968c123.328,0,223.663-100.335,223.663-223.663
	c0-53.528-19.212-105.325-54.098-145.848c-1.467-1.704-3.578-2.72-5.825-2.805c-2.24-0.065-4.428,0.774-6.018,2.362l-17.155,17.155
	c-0.938-1.176-1.881-2.34-2.834-3.482c-2.519-3.016-5.11-5.941-7.755-8.791l16.313-16.313c3.157-3.158,3.157-8.276,0-11.433
	c-3.158-3.156-8.276-3.156-11.433,0l-2.964,2.964l-13.343,13.343c-2.861-2.656-5.769-5.225-8.729-7.675
	c-8.627-7.142-19.922-10.098-30.977-8.11c-8.541,1.535-16.189,5.88-21.846,12.236c-18.388-8.867-37.527-13.372-56.997-13.372
	c-0.001,0-0.001,0-0.002,0c-0.001,0-0.001,0-0.002,0c-12.697,0-25.426,1.952-37.835,5.8c-4.264,1.323-6.648,5.852-5.327,10.116
	c0.026,0.085,0.069,0.16,0.098,0.243c0.002,0.004,0.004,0.009,0.005,0.013c1.153,3.315,4.256,5.435,7.615,5.435
	c0.793,0,1.6-0.117,2.397-0.365c0.586-0.182,1.177-0.34,1.765-0.512c10.296-3.015,20.808-4.562,31.281-4.562h0.004
	c16.237,0,32.269,3.613,47.771,10.73c0.128,0.059,0.257,0.114,0.385,0.174l-0.07,0.121l-6.043,10.466
	c-2.232,3.866-0.908,8.811,2.959,11.043l0,0c3.864,2.23,8.809,0.908,11.043-2.959l10.366-17.953
	c3.271-5.666,8.844-9.581,15.289-10.739c6.362-1.147,12.854,0.552,17.808,4.651c9.145,7.57,17.831,16.255,25.813,25.813
	c11.247,13.466,21.382,29.588,30.987,49.288l0.804,1.639c2.546,5.173,4.558,9.258,8.452,22.409
	c1.652,5.58,0.642,11.481-2.771,16.191c-0.376,0.52-0.784,1.008-1.204,1.479c-3.301,3.691-7.896,5.857-12.874,5.998l-0.363,0.009
	c-4.422,0.058-7.969,3.658-7.974,8.072c0,0.022-0.003,0.043-0.003,0.065c0.029,4.443,3.64,8.03,8.084,8.03h0.003
	c0.087,0,0.174-0.001,0.26-0.004l0.441-0.01c0.195-0.005,0.388-0.025,0.583-0.033c10.452-0.471,19.953-5.585,26.138-14.115
	c6.384-8.807,8.274-19.841,5.185-30.272c-4.285-14.47-6.793-19.565-9.449-24.96l-0.778-1.585
	c-6.537-13.41-13.345-25.291-20.579-35.915l12.601-12.601c28.841,36.509,44.631,81.827,44.631,128.567
	c0,114.413-93.082,207.495-207.495,207.495c-39.023,0-77.045-10.893-109.956-31.503c-3.738-2.342-8.647-1.246-11.049,2.428
	c-0.029,0.045-0.064,0.086-0.093,0.133C132.533,438.338,133.678,443.326,137.463,445.695z"/>
<circle cx="309.895" cy="266.779" r="16.168"/>
<circle cx="202.105" cy="266.779" r="16.168"/>
<path d="M245.221,312.589v-10.779c0-4.466-3.62-8.084-8.084-8.084c-4.465,0-8.084,3.618-8.084,8.084v10.779
	c0,4.466,3.62,8.084,8.084,8.084C241.601,320.674,245.221,317.055,245.221,312.589z"/>
<path d="M282.947,312.589v-10.779c0-4.466-3.62-8.084-8.084-8.084c-4.465,0-8.084,3.618-8.084,8.084v10.779
	c0,4.466,3.62,8.084,8.084,8.084C279.328,320.674,282.947,317.055,282.947,312.589z"/>
<g>
</g>
<g>
</g>
<g>
</g>
<g>
</g>
<g>
</g>
<g>
</g>
<g>
</g>
<g>
</g>
<g>
</g>
<g>
</g>
<g>
</g>
<g>
</g>
<g>
</g>
<g>
</g>
<g>
</g>
</svg>
