<svg xmlns="http://www.w3.org/2000/svg" xmlns:xlink="http://www.w3.org/1999/xlink" viewBox="0,0,256,256" width="144px" height="144px" fill-rule="nonzero"><g fill="none" fill-rule="nonzero" stroke="none" stroke-width="1" stroke-linecap="butt" stroke-linejoin="miter" stroke-miterlimit="10" stroke-dasharray="" stroke-dashoffset="0" font-family="none" font-weight="none" font-size="none" text-anchor="none" style="mix-blend-mode: normal"><g transform="scale(5.33333,5.33333)"><path d="M18.7,13.767l0.005,0.002c0.104,-0.443 0.482,-0.769 0.955,-0.769h13.472c0.017,0 0.034,-0.007 0.051,-0.006c-0.287,-4.779 -4.296,-6.994 -7.833,-6.994h-13.472c-0.474,0 -0.852,0.335 -0.955,0.777l-0.005,-0.002l-5.889,27.038l0.013,0.001c-0.014,0.064 -0.039,0.125 -0.039,0.194c0,0.553 0.447,0.991 1,0.991h8.071z" fill="#1565c0"></path><path d="M33.183,12.994c0.053,0.876 -0.005,1.829 -0.229,2.882c-1.281,5.995 -5.912,9.115 -11.635,9.115c0,0 -3.47,0 -4.313,0c-0.521,0 -0.767,0.306 -0.88,0.54l-1.74,8.049l-0.305,1.429h-0.006l-1.263,5.796l0.013,0.001c-0.014,0.064 -0.039,0.125 -0.039,0.194c0,0.553 0.447,1 1,1h7.333l0.013,-0.01c0.472,-0.007 0.847,-0.344 0.945,-0.788l0.018,-0.015l1.812,-8.416c0,0 0.126,-0.803 0.97,-0.803c0.844,0 4.178,0 4.178,0c5.723,0 10.401,-3.106 11.683,-9.102c1.442,-6.76 -3.38,-9.847 -7.555,-9.872z" fill="#039be5"></path><path d="M19.66,13c-0.474,0 -0.852,0.326 -0.955,0.769l-0.005,-0.002l-2.575,11.765c0.113,-0.234 0.359,-0.54 0.88,-0.54c0.844,0 4.235,0 4.235,0c5.723,0 10.432,-3.12 11.713,-9.115c0.225,-1.053 0.282,-2.006 0.229,-2.882c-0.016,-0.002 -0.034,0.005 -0.05,0.005z" fill="#283593"></path></g></g><g fill="#000000" fill-rule="nonzero" stroke="none" stroke-width="1" stroke-linecap="butt" stroke-linejoin="miter" stroke-miterlimit="10" stroke-dasharray="" stroke-dashoffset="0" font-family="none" font-weight="none" font-size="none" text-anchor="none" style="mix-blend-mode: normal"><g><path d="M163.29333,195.29833l-3.4,-0.59v-2.64h7.5v29.29l3.4,0.58v2.63h-10.9v-2.63l3.4,-0.58zM193.98333,224.56833h-5.38c-0.12667,-0.61333 -0.22333,-1.16333 -0.29,-1.65c-0.07333,-0.48667 -0.12333,-0.97333 -0.15,-1.46v0c-0.78667,1.01333 -1.77667,1.85667 -2.97,2.53c-1.18667,0.67333 -2.45333,1.01 -3.8,1.01v0c-2.34667,0 -4.13,-0.57 -5.35,-1.71c-1.22667,-1.14667 -1.84,-2.76333 -1.84,-4.85v0c0,-2.14 0.86667,-3.79 2.6,-4.95c1.72667,-1.16 4.09667,-1.74 7.11,-1.74v0h4.23v-2.62c0,-1.32 -0.41667,-2.36667 -1.25,-3.14c-0.83333,-0.76667 -1.99333,-1.15 -3.48,-1.15v0c-1.02667,0 -1.93333,0.13 -2.72,0.39c-0.78,0.26667 -1.41333,0.63 -1.9,1.09v0l-0.44,2.37h-3.17v-4.37c1.03333,-0.82 2.27667,-1.47667 3.73,-1.97c1.46,-0.49333 3.04333,-0.74 4.75,-0.74v0c2.56,0 4.63,0.65333 6.21,1.96c1.58667,1.30667 2.38,3.17333 2.38,5.6v0v10.86c0,0.28667 0.00333,0.57 0.01,0.85c0.00667,0.28 0.02333,0.55667 0.05,0.83v0l1.67,0.23zM182.00333,221.56833v0c1.36,0 2.60333,-0.32667 3.73,-0.98c1.12,-0.65333 1.92333,-1.44 2.41,-2.36v0v-3.7h-4.37c-1.68,0 -3.01,0.38667 -3.99,1.16c-0.98,0.78 -1.47,1.72667 -1.47,2.84v0c0,0.98 0.30667,1.73333 0.92,2.26c0.60667,0.52 1.53,0.78 2.77,0.78zM200.45333,196.58833h4.11v5.44h4.27v3.04h-4.27v13.68c0,1.06 0.21667,1.80333 0.65,2.23c0.44,0.43333 1.02,0.65 1.74,0.65v0c0.36667,0 0.77333,-0.03 1.22,-0.09c0.45333,-0.06667 0.83333,-0.13333 1.14,-0.2v0l0.56,2.81c-0.38667,0.25333 -0.95667,0.45667 -1.71,0.61c-0.74667,0.16 -1.49667,0.24 -2.25,0.24v0c-1.66667,0 -2.99333,-0.50333 -3.98,-1.51c-0.98667,-1.00667 -1.48,-2.58667 -1.48,-4.74v0v-13.68h-3.56v-3.04h3.56zM223.31333,224.99833v0c-3.14,0 -5.63667,-1.04333 -7.49,-3.13c-1.85333,-2.09333 -2.78,-4.80667 -2.78,-8.14v0v-0.91c0,-3.21333 0.95333,-5.88333 2.86,-8.01c1.91333,-2.13333 4.17333,-3.2 6.78,-3.2v0c3.03333,0 5.33,0.91667 6.89,2.75c1.56,1.83333 2.34,4.27667 2.34,7.33v0v2.56h-14.62l-0.06,0.11c0.04,2.16667 0.58667,3.94667 1.64,5.34c1.05333,1.4 2.53333,2.1 4.44,2.1v0c1.38667,0 2.60333,-0.2 3.65,-0.6c1.05333,-0.39333 1.96,-0.93667 2.72,-1.63v0l1.61,2.66c-0.80667,0.78 -1.87333,1.43667 -3.2,1.97c-1.32667,0.53333 -2.92,0.8 -4.78,0.8zM222.68333,204.83833v0c-1.37333,0 -2.54667,0.58 -3.52,1.74c-0.97333,1.16 -1.57,2.61333 -1.79,4.36v0l0.04,0.11h10.4v-0.55c0,-1.60667 -0.43,-2.95333 -1.29,-4.04c-0.86,-1.08 -2.14,-1.62 -3.84,-1.62zM239.35333,205.24833l-3.4,-0.58v-2.64h7.07l0.39,3.27c0.64,-1.15333 1.43,-2.05667 2.37,-2.71c0.93333,-0.65333 2.00667,-0.98 3.22,-0.98v0c0.32,0 0.65,0.02333 0.99,0.07c0.34,0.04667 0.6,0.1 0.78,0.16v0l-0.54,3.81l-2.34,-0.12c-1.08,0 -1.99,0.25333 -2.73,0.76c-0.73333,0.50667 -1.30333,1.21667 -1.71,2.13v0v12.94l3.4,0.58v2.63h-10.9v-2.63l3.4,-0.58z"></path></g></g></svg>